<?xml version="1.0" encoding="utf-8"?>
<!-- Generator: Adobe Illustrator 16.0.0, SVG Export Plug-In . SVG Version: 6.00 Build 0)  -->
<!DOCTYPE svg PUBLIC "-//W3C//DTD SVG 1.1//EN" "http://www.w3.org/Graphics/SVG/1.1/DTD/svg11.dtd">
<svg version="1.1" id="圖層_1" xmlns="http://www.w3.org/2000/svg" xmlns:xlink="http://www.w3.org/1999/xlink" x="0px" y="0px"
	 width="50px" height="50px" viewBox="125 125 50 50" enable-background="new 125 125 50 50" xml:space="preserve">
<g>
	
		<radialGradient id="SVGID_1_" cx="158.0068" cy="693.0635" r="12.7066" fx="158.0246" fy="693.2942" gradientTransform="matrix(2.6287 -1.4452 1.4452 2.6287 -1269.1985 -1454.9811)" gradientUnits="userSpaceOnUse">
		<stop  offset="0.2688" style="stop-color:#DDDE27"/>
		<stop  offset="1" style="stop-color:#B5B119"/>
	</radialGradient>
	<circle fill="url(#SVGID_1_)" cx="150" cy="150" r="25"/>
	<path fill="#EBEA74" d="M169.7,149.3c-1.6,2.8-3.3,5.7-4.7,8.9c-3.8,8.6-10.1,13.5-17.3,13.5c-4.1,0-8.3-1.6-12-4.5
		c-5-4-7.9-10.3-7.7-16.6c0.2-6.2,3.4-11.8,8.9-15.6c0.4-0.3,0.8-0.6,1.2-0.9c3.9-2.7,9.8-6.9,16.2-8.6c-0.8-0.1-1.6-0.2-2.5-0.3
		c-0.5,0-1.1-0.1-1.6-0.1c-5.2,2.1-9.8,5.3-13,7.6c-0.4,0.3-0.8,0.6-1.2,0.9c-6,4.2-9.4,10.2-9.6,16.9c-0.2,6.9,2.9,13.6,8.4,18
		c4,3.2,8.5,4.9,13,4.9c3.8,0,7.4-1.2,10.6-3.5c3.4-2.5,6.2-6.2,8.3-11c1.4-3.1,3-6,4.6-8.7c1.2-2,2.3-3.9,3.2-5.8
		c-0.2-0.8-0.4-1.6-0.7-2.4C172.6,144.1,171.2,146.6,169.7,149.3z"/>
</g>
</svg>
