<?xml version="1.0" encoding="utf-8"?>
<!-- Generator: Adobe Illustrator 16.0.0, SVG Export Plug-In . SVG Version: 6.00 Build 0)  -->
<!DOCTYPE svg PUBLIC "-//W3C//DTD SVG 1.1//EN" "http://www.w3.org/Graphics/SVG/1.1/DTD/svg11.dtd">
<svg version="1.1" id="圖層_1" xmlns="http://www.w3.org/2000/svg" xmlns:xlink="http://www.w3.org/1999/xlink" x="0px" y="0px"
	 width="50px" height="50px" viewBox="125 125 50 50" enable-background="new 125 125 50 50" xml:space="preserve">
<g>
	
		<radialGradient id="SVGID_1_" cx="65.6548" cy="1134.1025" r="27.2637" fx="66.9368" fy="1136.8276" gradientTransform="matrix(0.8432 -0.5468 0.5464 0.8438 -525.108 -776.0341)" gradientUnits="userSpaceOnUse">
		<stop  offset="0" style="stop-color:#FCA660"/>
		<stop  offset="0.3011" style="stop-color:#FA9D47"/>
		<stop  offset="1" style="stop-color:#D16B24"/>
	</radialGradient>
	<ellipse fill="url(#SVGID_1_)" cx="150" cy="150" rx="25" ry="25"/>
	<g>
		<path fill="#934D1B" d="M168.4,166.9c0-0.1-0.2-0.1-0.2-0.2c-4.4-5.1-10.7-8.1-17.3-8.3c-0.3,0-0.6,0-0.9,0c-0.3,0-0.6,0-0.9,0
			c-6.7,0.3-12.9,3.3-17.3,8.3c0,0.1-0.1,0.1-0.2,0.2c-0.4-0.4-0.8-0.8-1.1-1.3l0,0c4.8-5.5,11.5-8.7,18.6-8.9c0.3,0,0.6,0,0.9,0
			c0.3,0,0.5,0,0.9,0c7.2,0.3,13.9,3.5,18.6,8.9l0,0C169.2,166.1,168.8,166.5,168.4,166.9z"/>
		<path fill="#934D1B" d="M150.9,143.2c-0.3,0-0.6,0-0.9,0c-0.3,0-0.6,0-0.9,0c-6.6-0.2-12.8-2.9-17.4-7.6c-0.4-0.4-0.8-0.9-1.2-1.3
			l0,0c0.4-0.5,0.7-0.9,1.1-1.3c0,0.1,0.1,0.1,0.2,0.2c4.3,5.1,10.6,8.1,17.3,8.3c0.3,0,0.6,0,0.9,0c0.3,0,0.5,0,0.9,0
			c6.7-0.3,12.9-3.3,17.4-8.3c0,0,0.2-0.1,0.2-0.1c0.4,0.4,0.8,0.9,1.1,1.3l0,0C164.8,139.8,158,143,150.9,143.2z"/>
		<path fill="#934D1B" d="M175,150.8h-24.1h-1.7H125c0-0.2,0-0.5,0-0.8v0c0-0.3,0-0.6,0-0.9h24.1h1.7H175c0,0.3,0,0.6,0,0.9
			c0,0,0,0,0,0.1C175,150.3,175,150.6,175,150.8z"/>
		<path fill="#934D1B" d="M150.9,175L150.9,175c-0.3,0-0.6,0-0.9,0c-0.3,0-0.6,0-0.9,0v-16.5v-1.7v-5.9v-1.7v-5.9v-1.7V125
			c0.3,0,0.6,0,0.9,0c0.3,0,0.5,0,0.9,0v16.5v1.7v5.9v1.7v5.9v1.7V175z"/>
	</g>
</g>
</svg>
