<?xml version="1.0" encoding="utf-8"?>
<!-- Generator: Adobe Illustrator 16.0.0, SVG Export Plug-In . SVG Version: 6.00 Build 0)  -->
<!DOCTYPE svg PUBLIC "-//W3C//DTD SVG 1.1//EN" "http://www.w3.org/Graphics/SVG/1.1/DTD/svg11.dtd">
<svg version="1.1" id="圖層_1" xmlns="http://www.w3.org/2000/svg" xmlns:xlink="http://www.w3.org/1999/xlink" x="0px" y="0px"
	 width="50px" height="50px" viewBox="125 125 50 50" enable-background="new 125 125 50 50" xml:space="preserve">
<g>
	
		<radialGradient id="SVGID_1_" cx="99.7075" cy="1129.0947" r="40.873" fx="100.2337" fy="1130.6687" gradientTransform="matrix(0.8768 -0.482 0.482 0.8768 -482.2491 -802.6434)" gradientUnits="userSpaceOnUse">
		<stop  offset="0" style="stop-color:#FFFFFF"/>
		<stop  offset="0.5645" style="stop-color:#E4E2E2"/>
		<stop  offset="1" style="stop-color:#A7A1A0"/>
	</radialGradient>
	<path fill="url(#SVGID_1_)" d="M151.8,125.1c13.8,1,24.1,13,23.1,26.7c-1,13.8-13,24.1-26.7,23.1c-13.8-1-24.1-13-23.1-26.7
		C126.1,134.4,138,124.1,151.8,125.1z"/>
	<path fill="#AD241A" d="M156.1,172.8l-0.2-2.6c-0.5,0-1,0-1.4,0.1c0-1,0-2,0.2-3l1.3,0.2l0.3-2.5l-1.3-0.1c0.1-0.9,0.4-1.9,0.6-2.9
		l1.3,0.4l0.7-2.5l-1.3-0.4c0.3-0.9,0.7-1.8,1-2.7l1.2,0.6l1.1-2.3l-1.2-0.6c0.2-0.4,0.5-0.9,0.7-1.3c0.3-0.4,0.5-0.8,0.8-1.2
		c0.3,0.3,0.7,0.5,1.1,0.8l1.5-2.1c-0.4-0.3-0.7-0.5-1.1-0.8c0.6-0.7,1.2-1.5,1.9-2.2c0.3,0.3,0.6,0.6,1,1l1.9-1.8
		c-0.3-0.3-0.7-0.6-0.9-1c0.7-0.7,1.5-1.3,2.2-1.9l0.8,1.1l2.1-1.5l-0.8-1.1c0.8-0.5,1.7-1.1,2.6-1.5l0.6,1.2l0.7-0.3
		c-0.7-1.8-1.5-3.6-2.5-5.2l-0.5,0.3l0.8,1.6c-1,0.5-2.1,1.1-3,1.8l-1.1-1.5l-2.1,1.5l1,1.5c-0.9,0.6-1.8,1.4-2.6,2.1
		c-0.4-0.4-0.8-0.8-1.3-1.3l-1.9,1.8c0.5,0.5,0.9,0.9,1.3,1.3c-0.8,0.8-1.5,1.6-2.2,2.5c-0.3-0.2-0.7-0.5-1-0.7l-0.4-0.3l-1.5,2.1
		l0.4,0.3c0.4,0.3,0.7,0.5,1,0.7c-0.3,0.4-0.6,0.9-0.9,1.4c-0.3,0.5-0.6,1-0.8,1.4l-1.7-0.9l-1.1,2.3l1.7,0.8c-0.4,1-0.9,2-1.2,3.1
		l-1.8-0.5l-0.7,2.5l1.8,0.5c-0.3,1.1-0.5,2.2-0.7,3.3l-1.8-0.1l-0.3,2.6l1.8,0.2c-0.1,1.1-0.2,2.3-0.1,3.5l-1.8,0.1l0.2,2.6
		l1.7-0.1c0.1,0.6,0.1,1.3,0.2,1.9c0.9-0.1,1.7-0.2,2.6-0.4c-0.1-0.5-0.1-1.1-0.2-1.6C155.1,172.8,155.6,172.8,156.1,172.8z"/>
	<path fill="#BF513B" d="M127.5,156.7l2.4-1.1l-0.8-1.6c1-0.5,2.1-1.1,3-1.8l1,1.5l2.1-1.5l-1-1.5c0.9-0.6,1.8-1.4,2.6-2.1l1.3,1.3
		l1.9-1.9l-1.3-1.3c0.8-0.8,1.5-1.6,2.2-2.5l1.5,1.1l1.5-2.1l-1.5-1c0.3-0.5,0.6-0.9,0.9-1.4c0.3-0.5,0.6-1,0.8-1.4
		c0.3,0.2,0.7,0.3,1.2,0.6l0.5,0.2l1.1-2.3l-0.5-0.2c-0.4-0.2-0.8-0.4-1.2-0.6c0.4-1,0.9-2,1.2-3.1c0.5,0.2,1.1,0.3,1.8,0.5l0.7-2.5
		c-0.6-0.2-1.2-0.4-1.8-0.5c0.3-1.1,0.5-2.2,0.7-3.3l1.8,0.2l0.3-2.5l-1.8-0.2c0-0.1,0-0.3,0-0.4c-1.3,0.1-2.7,0.3-4,0.6l-0.2,1.8
		l1.3,0.1c-0.2,0.9-0.4,1.9-0.6,2.9c-0.4-0.1-0.8-0.2-1.3-0.4l-0.7,2.5c0.5,0.1,0.9,0.3,1.3,0.4c-0.3,0.9-0.7,1.8-1,2.7
		c-0.4-0.2-0.8-0.4-1.2-0.6l-1.2,2.3c0.5,0.2,0.8,0.4,1.2,0.6c-0.2,0.4-0.5,0.9-0.7,1.3c-0.3,0.4-0.5,0.8-0.7,1.2l-1.1-0.8l-1.5,2.1
		l1.1,0.8c-0.6,0.7-1.2,1.5-1.9,2.2l-0.9-1l-1.9,1.8l0.9,1c-0.7,0.7-1.5,1.3-2.2,1.9l-0.8-1.1l-2.1,1.5l0.8,1.1
		c-0.8,0.5-1.7,1.1-2.6,1.5c-0.1-0.4-0.4-0.8-0.6-1.2l-2.4,1.1c0.2,0.5,0.4,0.9,0.6,1.3c-0.2,0.1-0.4,0.1-0.5,0.2
		c0.1,0.9,0.3,1.8,0.4,2.6c0.4-0.2,0.8-0.3,1.1-0.5L127.5,156.7z"/>
</g>
</svg>
