<?xml version="1.0" encoding="utf-8"?>
<!-- Generator: Adobe Illustrator 16.0.0, SVG Export Plug-In . SVG Version: 6.00 Build 0)  -->
<!DOCTYPE svg PUBLIC "-//W3C//DTD SVG 1.1//EN" "http://www.w3.org/Graphics/SVG/1.1/DTD/svg11.dtd">
<svg version="1.1" id="圖層_1" xmlns="http://www.w3.org/2000/svg" xmlns:xlink="http://www.w3.org/1999/xlink" x="0px" y="0px"
	 width="50px" height="50px" viewBox="125 125 50 50" enable-background="new 125 125 50 50" xml:space="preserve">
<g>
	
		<radialGradient id="SVGID_1_" cx="168.3896" cy="52.0864" r="10.694" fx="168.8925" fy="53.1553" gradientTransform="matrix(2.8277 -0.9982 -0.998 -2.8282 -272.5109 455.424)" gradientUnits="userSpaceOnUse">
		<stop  offset="0" style="stop-color:#F7F8F8"/>
		<stop  offset="0.2518" style="stop-color:#F6F6F6"/>
		<stop  offset="0.4231" style="stop-color:#EFEFEF"/>
		<stop  offset="0.5705" style="stop-color:#E3E2E2"/>
		<stop  offset="0.7044" style="stop-color:#D2D0CF"/>
		<stop  offset="0.8291" style="stop-color:#BCB9B8"/>
		<stop  offset="0.9456" style="stop-color:#9F9E9D"/>
		<stop  offset="1" style="stop-color:#8F8F8F"/>
	</radialGradient>
	<path fill="url(#SVGID_1_)" d="M141.7,126.4c13-4.6,27.3,2.2,31.9,15.2c4.6,13-2.2,27.3-15.2,31.9c-13,4.6-27.3-2.2-31.9-15.2
		C121.8,145.3,128.7,131,141.7,126.4z"/>
	
		<linearGradient id="SVGID_2_" gradientUnits="userSpaceOnUse" x1="305.5801" y1="-130.2437" x2="277.4725" y2="-89.6932" gradientTransform="matrix(1 0 0 -1 -147.6602 30.04)">
		<stop  offset="0" style="stop-color:#040000"/>
		<stop  offset="1" style="stop-color:#6B6967"/>
	</linearGradient>
	<path fill="url(#SVGID_2_)" d="M170.1,163.6c-0.2-0.5-0.6-0.8-1.1-0.8l-7.2,0.1l-0.9,0h-0.3c-0.8,0-1.2,0.4-1.4,1.1l-0.5,1.7
		l-2,6.9c0,0.3,0.2,0.6,0.5,0.8l0.5,0.4c5.1-1.6,9.6-4.9,12.8-9.4L170.1,163.6z"/>
	
		<linearGradient id="SVGID_3_" gradientUnits="userSpaceOnUse" x1="288.6094" y1="-142.0073" x2="260.5033" y2="-101.4591" gradientTransform="matrix(1 0 0 -1 -147.6602 30.04)">
		<stop  offset="0" style="stop-color:#040000"/>
		<stop  offset="1" style="stop-color:#6B6967"/>
	</linearGradient>
	<path fill="url(#SVGID_3_)" d="M143.5,174.1l0.5-0.4c0.2-0.2,0.4-0.5,0.4-0.8l-2.3-6.8l-0.6-1.7c-0.2-0.7-0.7-1.1-1.5-1h-0.3
		l-0.9,0l-7.2,0.3c-0.5,0-1,0.4-1.1,0.9l-0.3,1c0,0,0.1,0.1,0.1,0.1c0.2,0.2,0.3,0.4,0.5,0.6c0.1,0,0.1,0.1,0.1,0.1
		C134.4,170.1,138.7,172.9,143.5,174.1z"/>
	
		<linearGradient id="SVGID_4_" gradientUnits="userSpaceOnUse" x1="321.7852" y1="-119.0112" x2="293.6773" y2="-78.4604" gradientTransform="matrix(1 0 0 -1 -147.6602 30.04)">
		<stop  offset="0" style="stop-color:#040000"/>
		<stop  offset="1" style="stop-color:#6B6967"/>
	</linearGradient>
	<path fill="url(#SVGID_4_)" d="M165.6,142.9l-0.1,0.2l-0.1,0.3c-0.3,0.7,0,1.3,0.6,1.7l1.5,1l6,4c0.3,0.1,0.7,0,0.9-0.2l0.5-0.4
		c-0.1-4.5-1.3-8.8-3.6-12.5C169.7,139.3,167.8,141.2,165.6,142.9z"/>
	
		<linearGradient id="SVGID_5_" gradientUnits="userSpaceOnUse" x1="292.293" y1="-139.4551" x2="264.1865" y2="-98.9063" gradientTransform="matrix(1 0 0 -1 -147.6602 30.04)">
		<stop  offset="0" style="stop-color:#040000"/>
		<stop  offset="1" style="stop-color:#6B6967"/>
	</linearGradient>
	<path fill="url(#SVGID_5_)" d="M127.2,139.8c-0.4,1-0.8,2-1.1,3c-0.8,2.5-1.1,5.1-1,7.7l0.3,0.3c0.3,0.2,0.6,0.2,0.9,0.2l5.9-4.1
		l1.5-1c0.3-0.2,0.5-0.4,0.6-0.7C131.7,143.8,129.3,142,127.2,139.8z"/>
	
		<linearGradient id="SVGID_6_" gradientUnits="userSpaceOnUse" x1="305.3945" y1="-130.374" x2="277.2865" y2="-89.823" gradientTransform="matrix(1 0 0 -1 -147.6602 30.04)">
		<stop  offset="0" style="stop-color:#040000"/>
		<stop  offset="1" style="stop-color:#6B6967"/>
	</linearGradient>
	<path fill="url(#SVGID_6_)" d="M141.2,147.9l0.3,0.9l0,0.1h0l2.7,7.5c0.1,0.2,0.2,0.4,0.3,0.6c0.2,0.4,0.7,0.5,1.2,0.6l9.4,0
		c0.4-0.1,0.7-0.2,1-0.4c0.2-0.2,0.4-0.5,0.5-0.8l2-7.6l0,0l0.3-1.2c0.1-0.3,0.1-0.6,0.1-0.8c-3.4,1.4-7,2.1-10.9,2.1
		C145.7,148.8,143.4,148.5,141.2,147.9z"/>
	<path d="M141,126.7l1.3,3c0.3,0.5,0.5,0.9,1.1,1c0.2,0.1,0.4,0.1,0.6,0.1l10.6-0.1c0.9,0,1.5-0.4,1.7-1.2l0.9-3.4
		C151.7,124.4,146,124.8,141,126.7z"/>
	
		<linearGradient id="SVGID_7_" gradientUnits="userSpaceOnUse" x1="315.3096" y1="-125.4502" x2="291.8141" y2="-89.2906" gradientTransform="matrix(1 0 0 -1 -147.6602 30.04)">
		<stop  offset="0" style="stop-color:#1A1A1A"/>
		<stop  offset="0.9032" style="stop-color:#6B6967"/>
	</linearGradient>
	<path fill="url(#SVGID_7_)" d="M141,126.7l1.3,3c0.3,0.5,0.5,0.9,1.1,1c0.2,0.1,0.4,0.1,0.6,0.1l10.6-0.1c0.9,0,1.5-0.4,1.7-1.2
		l0.9-3.4C151.7,124.4,146,124.8,141,126.7z"/>
	<path d="M171.4,137.1c-0.5-0.9-1.1-1.7-1.7-2.5l-0.6,0c-0.5,0-1,0.4-1.1,0.8l-2.1,6.9l-0.2,0.6
		C167.8,141.2,169.7,139.3,171.4,137.1z"/>
	
		<linearGradient id="SVGID_8_" gradientUnits="userSpaceOnUse" x1="322.9902" y1="-120.458" x2="299.4961" y2="-84.3003" gradientTransform="matrix(1 0 0 -1 -147.6602 30.04)">
		<stop  offset="0" style="stop-color:#1A1A1A"/>
		<stop  offset="0.9032" style="stop-color:#6B6967"/>
	</linearGradient>
	<path fill="url(#SVGID_8_)" d="M171.4,137.1c-0.5-0.9-1.1-1.7-1.7-2.5l-0.6,0c-0.5,0-1,0.4-1.1,0.8l-2.1,6.9l-0.2,0.6
		C167.8,141.2,169.7,139.3,171.4,137.1z"/>
	<path d="M134.3,144.2l-0.1-0.3l-0.3-0.9l-2.2-6.8c-0.1-0.5-0.6-0.8-1.1-0.8l-0.9,0c-1,1.4-1.8,2.8-2.5,4.4c2.1,2.2,4.5,4,7.1,5.4
		C134.4,144.9,134.4,144.6,134.3,144.2z"/>
	
		<linearGradient id="SVGID_9_" gradientUnits="userSpaceOnUse" x1="296.457" y1="-137.6953" x2="272.9631" y2="-101.5379" gradientTransform="matrix(1 0 0 -1 -147.6602 30.04)">
		<stop  offset="0" style="stop-color:#1A1A1A"/>
		<stop  offset="0.9032" style="stop-color:#6B6967"/>
	</linearGradient>
	<path fill="url(#SVGID_9_)" d="M134.3,144.2l-0.1-0.3l-0.3-0.9l-2.2-6.8c-0.1-0.5-0.6-0.8-1.1-0.8l-0.9,0c-1,1.4-1.8,2.8-2.5,4.4
		c2.1,2.2,4.5,4,7.1,5.4C134.4,144.9,134.4,144.6,134.3,144.2z"/>
	<path d="M158.4,145.7l-0.3-0.2l-7.4-5.2c-0.6-0.4-1.2-0.4-1.8,0.1l-6.8,5.2l-0.5,0.4c-0.5,0.4-0.8,1.1-0.5,1.7l0.1,0.2
		c2.2,0.5,4.6,0.8,7,0.8c3.9,0,7.5-0.7,10.9-2.1c0-0.2-0.1-0.3-0.2-0.5C158.7,145.9,158.5,145.8,158.4,145.7z"/>
	
		<linearGradient id="SVGID_10_" gradientUnits="userSpaceOnUse" x1="306.7354" y1="-131.0171" x2="283.2438" y2="-94.8634" gradientTransform="matrix(1 0 0 -1 -147.6602 30.04)">
		<stop  offset="0" style="stop-color:#1A1A1A"/>
		<stop  offset="0.9032" style="stop-color:#6B6967"/>
	</linearGradient>
	<path fill="url(#SVGID_10_)" d="M158.4,145.7l-0.3-0.2l-7.4-5.2c-0.6-0.4-1.2-0.4-1.8,0.1l-6.8,5.2l-0.5,0.4
		c-0.5,0.4-0.8,1.1-0.5,1.7l0.1,0.2c2.2,0.5,4.6,0.8,7,0.8c3.9,0,7.5-0.7,10.9-2.1c0-0.2-0.1-0.3-0.2-0.5
		C158.7,145.9,158.5,145.8,158.4,145.7z"/>
</g>
</svg>
