<?xml version="1.0" encoding="utf-8"?>
<!-- Generator: Adobe Illustrator 16.0.0, SVG Export Plug-In . SVG Version: 6.00 Build 0)  -->
<!DOCTYPE svg PUBLIC "-//W3C//DTD SVG 1.1//EN" "http://www.w3.org/Graphics/SVG/1.1/DTD/svg11.dtd">
<svg version="1.1"
	 id="svg2" xmlns:rdf="http://www.w3.org/1999/02/22-rdf-syntax-ns#" xmlns:inkscape="http://www.inkscape.org/namespaces/inkscape" xmlns:sodipodi="http://sodipodi.sourceforge.net/DTD/sodipodi-0.dtd" xmlns:svg="http://www.w3.org/2000/svg" xmlns:cc="http://creativecommons.org/ns#" xmlns:dc="http://purl.org/dc/elements/1.1/"
	 xmlns="http://www.w3.org/2000/svg" xmlns:xlink="http://www.w3.org/1999/xlink" x="0px" y="0px" width="32px" height="32px"
	 viewBox="0 0 32 32" enable-background="new 0 0 32 32" xml:space="preserve">
<g id="layer1" transform="translate(0,-540.36218)">
	<path id="path3036" fill="#FFFFFF" d="M15.98,543.142c-0.878,0.002-1.769,0.091-2.661,0.275
		c-7.138,1.479-11.741,8.488-10.263,15.626c1.478,7.139,8.486,11.74,15.624,10.264l-0.373-1.801
		c-6.166,1.277-12.175-2.67-13.452-8.836c-1.276-6.166,2.672-12.177,8.838-13.455c6.165-1.276,12.175,2.672,13.451,8.838
		c0.534,2.577,0.158,5.257-1.061,7.585l-1.258-0.729l-0.623,6.045l4.923-3.561l-1.449-0.838c1.443-2.719,1.893-5.857,1.268-8.875
		C27.65,547.437,22.124,543.13,15.98,543.142z"/>
	<g id="g3016" transform="matrix(-1,0,0,1,502.69953,6.6120369e-6)">
	</g>
</g>
</svg>
